<?xml version="1.0" standalone="no"?>
<!DOCTYPE svg PUBLIC "-//W3C//DTD SVG 20010904//EN"
 "http://www.w3.org/TR/2001/REC-SVG-20010904/DTD/svg10.dtd">
<svg version="1.0" xmlns="http://www.w3.org/2000/svg"
 width="920.000000pt" height="600.000000pt" viewBox="0 0 920.000000 600.000000"
 preserveAspectRatio="xMidYMid meet">
<metadata>
Created by potrace 1.16, written by Peter Selinger 2001-2019
</metadata>
<g transform="translate(0.000000,600.000000) scale(0.100000,-0.100000)"
fill="#000000" stroke="none">
<path d="M4350 5989 c-589 -48 -1164 -277 -1630 -649 -134 -107 -352 -325
-458 -458 -293 -367 -507 -821 -597 -1266 -127 -628 -56 -1270 202 -1844 327
-726 952 -1307 1696 -1576 360 -130 653 -181 1042 -180 247 0 390 15 608 60
1247 261 2200 1301 2351 2564 83 689 -65 1361 -428 1948 -476 768 -1306 1293
-2201 1392 -142 15 -450 20 -585 9z m1720 -2208 c298 -82 541 -290 655 -560
65 -153 70 -191 68 -453 -2 -247 -10 -319 -45 -428 -101 -313 -356 -554 -678
-641 -123 -34 -357 -34 -480 -1 -219 59 -430 208 -553 389 l-42 62 -395 0
-395 0 -35 -56 c-46 -74 -168 -198 -249 -252 -86 -58 -209 -115 -306 -141
-100 -27 -283 -37 -383 -21 -378 59 -688 335 -793 706 -40 141 -34 549 11 714
99 364 417 643 798 700 31 5 660 8 1397 7 l1340 -1 85 -24z"/>
<path d="M5779 3553 c-35 -18 -64 -43 -84 -71 -27 -40 -30 -52 -33 -141 -3
-84 -1 -104 17 -138 69 -135 248 -164 354 -57 43 42 59 81 65 150 7 96 -12
159 -67 214 -75 75 -160 89 -252 43z"/>
<path d="M3305 3448 c-40 -14 -84 -56 -101 -95 -10 -23 -14 -77 -14 -182 l0
-150 -163 -3 c-163 -3 -164 -3 -201 -32 -52 -39 -66 -78 -66 -183 0 -77 3 -93
25 -125 43 -64 89 -78 257 -78 l147 0 3 -164 c3 -149 5 -167 24 -193 55 -73
147 -95 224 -52 66 37 77 72 86 252 l7 157 143 0 c170 0 210 12 255 73 27 37
29 47 29 129 0 106 -14 145 -66 184 -37 29 -39 29 -203 34 l-166 5 -4 155 c-2
113 -7 164 -19 188 -30 65 -129 105 -197 80z"/>
<path d="M5335 3104 c-95 -52 -129 -120 -124 -251 4 -79 7 -92 34 -129 97
-136 273 -134 370 5 28 40 30 48 30 139 0 88 -3 101 -28 145 -42 71 -94 101
-181 105 -51 2 -79 -2 -101 -14z"/>
<path d="M6235 3102 c-45 -21 -91 -70 -112 -119 -7 -18 -13 -68 -13 -113 0
-96 18 -140 81 -193 89 -77 217 -68 301 20 41 43 58 94 58 176 0 94 -34 167
-98 212 -56 38 -155 46 -217 17z"/>
<path d="M5784 2651 c-49 -22 -97 -78 -113 -130 -16 -55 -14 -165 5 -209 57
-137 232 -180 344 -84 59 50 80 99 80 195 0 116 -36 184 -122 228 -49 25 -139
25 -194 0z"/>
</g>
</svg>
